<svg xmlns="http://www.w3.org/2000/svg" xmlns:xlink="http://www.w3.org/1999/xlink" width="175" height="26" viewBox="0 0 175 26">
    <defs>
        <path id="logo_svg__a" d="M0 .174h116.832V24H0z"/>
    </defs>
    <g fill="none" fill-rule="evenodd">
        <g transform="translate(.5 2)">
            <mask id="logo_svg__b" fill="#fff">
                <use xlink:href="#logo_svg__a"/>
            </mask>
            <path fill="currentColor" d="M20.199 5.24H15.34l-2.484 6.058-2.74 7.562-2.775-7.636L4.858 5.24H0l7.707 18.21h4.821l7.67-18.21zm15.859.036l-.146 2.497c-1.023-1.835-3.397-2.937-5.808-2.937-5.223 0-9.314 3.267-9.314 9.472 0 6.315 3.908 9.619 9.204 9.619 2.01 0 4.895-1.028 5.918-3.194l.219 2.643h4.2v-18.1h-4.273zm-5.479 3.562c3.506 0 5.26 2.753 5.26 5.47 0 2.753-1.754 5.507-5.26 5.507-2.958 0-5.333-2.056-5.333-5.507 0-3.451 2.375-5.47 5.333-5.47zm25.462 1.248l2.483-2.937c-2.082-1.836-4.2-2.387-7.013-2.387-3.287 0-7.597 1.47-7.597 5.654 0 4.112 4.055 5.36 7.451 5.617 2.557.147 3.58.661 3.58 1.91 0 1.284-1.498 2.166-3.141 2.166-2.009 0-5.004-1.065-6.32-2.533l-2.19 3.193C45.923 23.523 48.771 24 51.62 24c5.15 0 7.743-2.753 7.743-5.947 0-4.81-4.31-5.58-7.706-5.801-2.301-.147-3.36-.808-3.36-1.982 0-1.139 1.168-1.8 3.286-1.8 1.717 0 3.178.405 4.457 1.616zM68.704.174L64.248.65v4.662h-3.36v3.855h3.36v7.82c0 4.369 2.41 6.608 6.1 6.608 1.534 0 2.666-.22 4.054-.77l-1.242-3.819c-.658.33-1.461.551-2.155.551-1.388 0-2.338-.844-2.338-2.57v-7.82h5.005V5.313h-4.968V.173zm12.764 5.102h-4.456v9.51c0 5.616 3.141 8.884 7.451 8.884 2.52 0 4.237-.881 6.1-2.717l.292 2.46h3.981V5.276h-4.42v9.252c0 2.754-1.862 5.067-4.601 5.067-2.85 0-4.347-2.093-4.347-4.847V5.276zm21.996 0h-4.456v9.51c0 5.616 3.14 8.884 7.45 8.884 2.52 0 4.238-.881 6.1-2.717l.293 2.46h3.98V5.276h-4.419v9.252c0 2.754-1.862 5.067-4.602 5.067-2.849 0-4.346-2.093-4.346-4.847V5.276z" mask="url(#logo_svg__b)"/>
        </g>
        <path fill="currentColor" d="M132.157 0l-.91 1.166c-.632-.433-1.375-.527-2.1-.527-2.566 0-4.647 1.805-4.647 4.7 0 2.896 1.784 4.663 4.647 4.663 1.134 0 2.323.583 2.323 1.862 0 1.278-1.022 1.993-2.323 1.993-1.302 0-2.398-.79-2.398-1.993H124.5c0 2.5 1.989 4.136 4.647 4.136 2.657 0 4.59-1.58 4.59-4.136 0-1.185-.372-2.294-1.896-3.065 1.506-.695 1.933-2.312 1.933-3.46 0-1.015-.26-1.936-.966-2.745l1.022-1.316L132.157 0zm-3.01 2.726c1.3 0 2.378 1.015 2.378 2.613 0 1.599-1.077 2.576-2.378 2.576-1.32 0-2.398-.958-2.398-2.576 0-1.617 1.078-2.613 2.398-2.613zM137.584.94h-2.1v9.27h2.268V5.32c0-1.71 1.096-2.35 2.286-2.35.743 0 1.17.207 1.635.602l1.022-1.993c-.501-.507-1.412-.884-2.36-.884-.93 0-1.877.17-2.583 1.316l-.168-1.07zm9.728-.188c-2.918 0-4.74 2.181-4.74 4.832 0 2.67 1.785 4.832 4.759 4.832s4.777-2.163 4.777-4.832c0-2.65-1.878-4.832-4.796-4.832zm.019 2.087c1.524 0 2.49 1.353 2.49 2.745 0 1.41-.836 2.726-2.49 2.726-1.654 0-2.49-1.316-2.49-2.726 0-1.392.855-2.745 2.49-2.745zM155.61.94h-2.268v4.87c0 2.876 1.6 4.55 3.792 4.55 1.282 0 2.156-.452 3.104-1.392l.148 1.26h2.026V.94h-2.248v4.738c0 1.41-.948 2.595-2.342 2.595-1.45 0-2.212-1.072-2.212-2.482V.941zm8.945 13.142h2.268V9.119c.65 1.015 2.082 1.316 3.048 1.316 2.937 0 4.628-2.143 4.628-4.851 0-2.726-1.877-4.851-4.702-4.851-1.041 0-2.267.451-2.974 1.486L166.675.94h-2.119v13.142zm5.074-5.866c-1.542 0-2.602-1.185-2.602-2.632 0-1.448.967-2.632 2.602-2.632 1.636 0 2.602 1.184 2.602 2.632 0 1.447-1.059 2.632-2.602 2.632z"/>
    </g>
</svg>
